<?xml version="1.0" encoding="UTF-8" standalone="no"?>
<svg
   xmlns:dc="http://purl.org/dc/elements/1.1/"
   xmlns:cc="http://creativecommons.org/ns#"
   xmlns:rdf="http://www.w3.org/1999/02/22-rdf-syntax-ns#"
   xmlns:svg="http://www.w3.org/2000/svg"
   xmlns="http://www.w3.org/2000/svg"
   xmlns:xlink="http://www.w3.org/1999/xlink"
   width="35mm"
   height="35mm"
   viewBox="0 0 35 35"
   version="1.1"
   id="svg8">
  <defs
     id="defs2" />
  <metadata
     id="metadata5">
    <rdf:RDF>
      <cc:Work
         rdf:about="">
        <dc:format>image/svg+xml</dc:format>
        <dc:type
           rdf:resource="http://purl.org/dc/dcmitype/StillImage" />
        <dc:title></dc:title>
      </cc:Work>
    </rdf:RDF>
  </metadata>
  <g
     id="layer1"
     transform="translate(-53.67262,-51.404762)">
    <g
       id="g24"
       transform="matrix(0.25798439,0,0,0.25806666,34.042347,9.7766076)"
       style="fill:#91cff1;fill-opacity:1">
      <path
         style="fill:#91cff1;fill-opacity:1;stroke:#070e35;stroke-width:0.265362;stroke-opacity:1"
         d="M 121.91997,74.014058 C 64.880615,69.148198 38.884235,0.1738176 78.638895,-40.820582 c 35.171315,-36.26813 96.867165,-22.44688 112.937015,25.30042 15.55525,46.21829 -21.3497,93.65509 -69.65594,89.53422 z m 13.0222,-11.56084 c 42.69913,-5.5697 63.53195,-55.5602004 37.57969,-90.17632 -23.88612,-31.86022 -73.228045,-29.27466 -93.657115,4.90771 -24.33605,40.71961 9.00037,91.40937 56.077425,85.26861 z M 96.702885,34.069688 c -4.04972,-2.09734 -4.30495,-7.59663 -0.45747,-9.85692 1.97875,-1.16246 60.253525,-1.16246 62.232265,0 3.92305,2.3047 3.46304,8.4168 -0.75407,10.01917 -1.26732,0.48153 -60.079595,0.32516 -61.020725,-0.16225 z m 0.13461,-22.55581 c -4.42953,-1.9197304 -4.3918,-8.4498904 0.0596,-10.3086504 1.49197,-0.62301 59.437015,-0.62301 60.928975,0 4.4834,1.87214 4.4834,8.44851 0,10.3206504 -1.47313,0.61514 -59.567855,0.60371 -60.988535,-0.012 z m 0.7318,-22.38816 c -5.05008,-1.53576 -5.43835,-8.77666 -0.56981,-10.62655 0.90155,-0.34255 59.822575,-0.34255 60.724125,0 4.21711,1.60237 4.67712,7.71448 0.75407,10.01916 -1.25506,0.73732 -58.600665,1.30917 -60.908385,0.60739 z"
         id="path28" />
      <use
         x="0"
         y="0"
         xlink:href="#path28"
         id="use1460"
         style="opacity:1;stroke:#070e35;stroke-opacity:1"
         width="100%"
         height="100%" />
      <path
         style="opacity:1;fill:#80cff1;fill-opacity:1;stroke:#070e35;stroke-width:1.42857;stroke-opacity:1"
         d="M 45.986069,127.92668 C -0.35496424,111.99147 -14.068005,54.61732 20.25966,20.289655 61.123549,-20.574234 130.91558,8.1382528 130.91558,65.813569 c 0,28.921319 -18.31197,53.856491 -45.844218,62.425491 -11.728624,3.65036 -27.938014,3.52081 -39.085293,-0.31238 z M 87.665468,117.85529 C 99.225278,113.5439 113.53494,99.198728 117.87011,87.575695 128.53817,58.973522 117.40443,29.2356 91.202173,16.346399 82.184038,11.91027 80.834161,11.659865 65.938146,11.659865 c -14.095231,0 -16.591615,0.400601 -23.930833,3.840244 -33.5005834,15.70059 -42.12836166,60.28718 -17.10724,88.406711 6.446346,7.24461 19.843683,15.06098 29.204183,17.03851 8.816857,1.86269 24.039882,0.46108 33.561212,-3.09004 z"
         id="path1464"
         transform="matrix(1.0255788,0,0,1.0252519,59.515078,-61.359317)" />
      <path
         style="opacity:1;fill:#80cff1;fill-opacity:1;stroke:#070e35;stroke-width:1.42857;stroke-opacity:1"
         d="M 55.201299,118.9525 C 38.526102,115.39914 24.987103,104.52131 17.002022,88.261502 c -3.507473,-7.142176 -3.94358,-9.610016 -3.94358,-22.315923 0,-12.915674 0.402739,-15.10599 4.199454,-22.83891 5.301768,-10.79832 14.912683,-20.468157 25.483972,-25.640207 7.403241,-3.622068 9.687963,-4.020883 23.03475,-4.020883 12.826638,0 15.878814,0.486408 22.727873,3.62201 21.814679,9.987091 35.338329,35.035284 30.984939,57.38961 C 113.41453,105.6514 85.016993,125.30599 55.201299,118.9525 Z M 98.772728,88.088436 v -5 L 67.184181,82.704489 c -34.502899,-0.41937 -36.156453,-0.0556 -34.251336,7.534987 l 0.907737,3.616713 32.466073,-0.383876 32.466073,-0.383877 z m -1,-17.428571 c 0.942857,-0.942857 1.714285,-3.064286 1.714285,-4.714286 0,-6.058546 -1.932358,-6.428571 -33.571428,-6.428571 -31.63907,0 -33.571429,0.370025 -33.571429,6.428571 0,6.058546 1.932359,6.428571 33.571429,6.428571 21.539683,0 30.632137,-0.48928 31.857143,-1.714285 z m 0.75454,-22.527782 c 0.65071,-0.618284 0.972138,-2.970325 0.714285,-5.226758 L 98.772728,38.802722 67.184181,38.418775 c -26.715152,-0.324713 -31.863973,-0.05209 -33.373812,1.767163 -2.574334,3.101882 -0.670393,8.993277 3.179001,9.83683 4.935523,1.081567 60.196648,-0.61627 61.537898,-1.890685 z"
         id="path1466"
         transform="matrix(1.0255788,0,0,1.0252519,59.515078,-61.359317)" />
    </g>
  </g>
</svg>
